<?xml version="1.0" encoding="utf-8"?>
<!-- Generator: Adobe Illustrator 23.0.1, SVG Export Plug-In . SVG Version: 6.00 Build 0)  -->
<svg version="1.1" id="Layer_1" xmlns="http://www.w3.org/2000/svg" xmlns:xlink="http://www.w3.org/1999/xlink" x="0px" y="0px"
	 viewBox="0 0 448 512" style="enable-background:new 0 0 448 512;" xml:space="preserve">
<style type="text/css">
	.st0{fill:#565656;}
</style>
<g>
	<path class="st0" d="M130.5,477h-63c-2.8,0-5-2.3-5-5V40c0-2.8,2.3-5,5-5h63c2.8,0,5,2.3,5,5v432C135.5,474.8,133.3,477,130.5,477z
		"/>
	<path class="st0" d="M380.5,477h-63c-2.8,0-5-2.3-5-5V40c0-2.8,2.3-5,5-5h63c2.8,0,5,2.3,5,5v432C385.5,474.8,383.3,477,380.5,477z
		"/>
</g>
</svg>
