<svg xmlns="http://www.w3.org/2000/svg" viewBox="0 0 701.17 115.52"><defs><style>.cls-1,.cls-2{fill:#fff;}.cls-2{opacity:0.5;}</style></defs><title>logo_rastech_wh</title><g id="Layer_2" data-name="Layer 2"><g id="Layer_1-2" data-name="Layer 1"><path class="cls-1" d="M110,69.64l2.82-1.5A8.22,8.22,0,0,0,110,69.64Z"/><polygon class="cls-2" points="112.8 68.14 112.8 68.14 112.8 68.14 112.8 68.14"/><path class="cls-1" d="M116.73,92.45l2.08-2.75c-1,.64-2.06,1.27-3.12,1.9A6.8,6.8,0,0,1,116.73,92.45Z"/><path class="cls-1" d="M142.34,72.21q-4.12,3.71-8.77,7.29c9.22,6.5,19.24,17.2,26.23,34.83,0,0,9.26-7.12,37.67,0C191.41,108.27,167.57,83.05,142.34,72.21Z"/><path class="cls-1" d="M109.35,95.2q3.24-1.76,6.34-3.6a3.79,3.79,0,0,0-2.18-.72C111.55,90.88,109.89,92.47,109.35,95.2Z"/><path class="cls-1" d="M46.53,97.19c-.5-2-1-4.41-1.47-6.47H45c-.45,2.11-1,4.47-1.42,6.47l-.4,1.71h3.79Z"/><path class="cls-1" d="M30.61,93.45c0-1.89-1.12-2.51-3.24-2.51h-2v5.41h2C29.49,96.35,30.61,95.35,30.61,93.45Z"/><path class="cls-1" d="M167.06,15.83C155.88-6.11,110-5.12,64.52,18s-73.23,59.72-62,81.66c9.87,19.36,46.76,20.86,86.53,5V87.12h11.76v4h-7.3v3.74h6.2v4.06h-6.2v4q5.55-2.39,11.15-5.2c0-.13,0-.26,0-.39,0-6.72,4.14-10.56,8.85-10.56a7.64,7.64,0,0,1,5.63,2.62l-.26.34q2-1.24,4-2.54v0h.07q5.63-3.7,10.7-7.62C121,70.69,110,69.64,110,69.64c10.62-11.74,14.63-22.29,5.07-30.26-6.37-5.32-41.29-.43-73.37,22.29C25.56,73.09,18,80,16.74,85.45A6.66,6.66,0,0,1,16,84C13,76.32,40.17,45.22,74.5,27.72s66-20.18,75.24-7.34c12.35,17.17-8.82,32.6-36.94,47.76,9.39-2.27,19.57-.22,29.54,4.07C164.18,52.54,174.68,30.79,167.06,15.83ZM70.89,87.12h14.5v4h-5v16.14H75.9V91.12h-5Zm-9,12.32-2.36-1.09a5.85,5.85,0,0,1-3.77-5.52c0-3.38,2.79-6.09,6.73-6.09a8.28,8.28,0,0,1,6,2.65l-2.22,3a5.74,5.74,0,0,0-3.81-1.54c-1.37,0-2.22.6-2.22,1.68s1.17,1.54,2.82,2.25l2.32,1a5.54,5.54,0,0,1,3.66,5.52c0,3.36-2.59,6.31-7.08,6.31a9.87,9.87,0,0,1-6.92-2.9l2.51-3.33a7.19,7.19,0,0,0,4.51,2.06c1.65,0,2.42-.68,2.42-1.76S63.47,100.17,61.87,99.44ZM42.44,87.12h5.34l5.75,20.14H48.85l-1.07-4.63H42.29l-1.07,4.63H36.69Zm-21.52,0h6.8c4,0,7.25,1.46,7.25,6.33,0,3-1.27,4.85-3.19,5.82l4.14,8h-5l-3.42-7.09H25.38v7.09H20.92Z"/><path class="cls-1" d="M89,107.26h12V103.2H93.46v-.31q-2.23,1-4.46,1.84Z"/><path class="cls-1" d="M104.61,97.69c.15,6.56,4.06,10,8.68,10a7.45,7.45,0,0,0,6-3l-2.34-3a4.68,4.68,0,0,1-3.54,1.84c-2.61,0-4.31-2.33-4.31-6.33a9.72,9.72,0,0,1,.2-1.94c-1.43.78-2.87,1.54-4.34,2.29Z"/><path class="cls-1" d="M122.8,107.26h4.46V99h6.11v8.28h4.41V87.12h-4.41v7.66h-6.11V87.12h-4.39l-.07,0Z"/><path class="cls-1" d="M122.8,87.16l.07,0h-.07Z"/><path class="cls-1" d="M110,69.64l2.82-1.5A8.22,8.22,0,0,0,110,69.64Z"/><polygon class="cls-2" points="112.8 68.14 112.8 68.14 112.8 68.14 112.8 68.14"/><path class="cls-1" d="M116.73,92.45l2.08-2.75c-1,.64-2.06,1.27-3.12,1.9A6.8,6.8,0,0,1,116.73,92.45Z"/><path class="cls-1" d="M142.34,72.21q-4.12,3.71-8.77,7.29c9.22,6.5,19.24,17.2,26.23,34.83,0,0,9.26-7.12,37.67,0C191.41,108.27,167.57,83.05,142.34,72.21Z"/><path class="cls-1" d="M109.35,95.2q3.24-1.76,6.34-3.6a3.79,3.79,0,0,0-2.18-.72C111.55,90.88,109.89,92.47,109.35,95.2Z"/><path class="cls-1" d="M89,107.26h12V103.2H93.46v-.31q-2.23,1-4.46,1.84Z"/><path class="cls-1" d="M104.61,97.69c.15,6.56,4.06,10,8.68,10a7.45,7.45,0,0,0,6-3l-2.34-3a4.68,4.68,0,0,1-3.54,1.84c-2.61,0-4.31-2.33-4.31-6.33a9.72,9.72,0,0,1,.2-1.94c-1.43.78-2.87,1.54-4.34,2.29Z"/><path class="cls-1" d="M122.8,107.26h4.46V99h6.11v8.28h4.41V87.12h-4.41v7.66h-6.11V87.12h-4.39l-.07,0Z"/><path class="cls-1" d="M122.8,87.16l.07,0h-.07Z"/><path class="cls-1" d="M211.48,61.87a80.28,80.28,0,0,0,2.76,20.83,61,61,0,0,0,9.87,20.1H213.05a53.93,53.93,0,0,1-10.24-18.71,75,75,0,0,1-3.32-22.68V57.72a74.17,74.17,0,0,1,3.32-22.59,54.07,54.07,0,0,1,10.24-18.62h11.06a60.44,60.44,0,0,0-9.73,19.41,77.66,77.66,0,0,0-2.9,21.34Z"/><path class="cls-1" d="M299.85,62.7v9.86H266.48V100.4H254.77V72.56H221.31V62.7ZM231,19.37h59.18v9.86h-23.6V30a9.41,9.41,0,0,0,1.66,5.58,14.62,14.62,0,0,0,5.62,4.29q4.51,2.2,10,4.51t10.69,4.34L290,57.81q-5.07-2-10-4.15t-9.31-4.14a55.06,55.06,0,0,1-6.59-3.46,9.94,9.94,0,0,1-3.28-2.91h-.09a10.25,10.25,0,0,1-3.5,3,61.79,61.79,0,0,1-6.82,3.55q-4.42,2-9.31,4.15t-10,4.15l-4.52-9.31q5.26-2,10.7-4.34t10-4.51a14.66,14.66,0,0,0,5.63-4.29A9.48,9.48,0,0,0,254.59,30v-.74H231Z"/><path class="cls-1" d="M309.68,57.26a77.29,77.29,0,0,0-2.91-21.34,60.21,60.21,0,0,0-9.72-19.41h11.06a54,54,0,0,1,10.23,18.62,73.87,73.87,0,0,1,3.32,22.59v3.69a74.73,74.73,0,0,1-3.32,22.68,53.9,53.9,0,0,1-10.23,18.71H297.05a61,61,0,0,0,9.86-20.1,79.86,79.86,0,0,0,2.77-20.83Z"/><path class="cls-1" d="M352.21,72.32h9q7.38,0,15.31-.48t15.42-1.45l1.5,11.35a157.7,157.7,0,0,1-16.6,1.61q-9,.42-18.84.43H338.83V43.41h31.91V27.13H338.83V15.68h45.29V54.44H352.21Zm60.5-28.91h13.71V55.19H412.71v52.36h-13.6V8h13.6Z"/><path class="cls-1" d="M517,83.56V95H425.77V83.56ZM471.71,47.48a11.69,11.69,0,0,1-3.59,3.91q-2.73,2.09-6.8,4.87-4.4,2.9-10.17,6.37T437.66,70.5L431,59.79q5.88-3.32,11.88-6.9t10.71-6.8a32.8,32.8,0,0,0,5.3-4.29,18.57,18.57,0,0,0,3.32-4.55A19.39,19.39,0,0,0,464,32.06a34.3,34.3,0,0,0,.53-6.32v-11h13.71v11a34.3,34.3,0,0,0,.53,6.32,19.39,19.39,0,0,0,1.77,5.19,18.57,18.57,0,0,0,3.32,4.55,32.8,32.8,0,0,0,5.3,4.29q4.71,3.21,10.71,6.8t11.88,6.9l-6.53,10.5q-7.71-4.4-13.49-7.87C487.88,60.1,484.48,58,481.56,56c-2.72-1.85-4.87-3.44-6.48-4.76a11.8,11.8,0,0,1-3.27-3.8Z"/><path class="cls-1" d="M521.07,16.53h38.65V28H534.13V42.87H554.9V54.12H534.13V70.39h4.6q6.1,0,12.85-.37t13.5-1.34L566.36,80a116.89,116.89,0,0,1-14.13,1.45q-7.93.38-16.28.37H521.07Zm50.54,37.16H560.26V42h11.35V10h12.85v92.73H571.61Zm33.08,53.86H591.84V8h12.85Z"/><path class="cls-1" d="M701.17,83.56V95H609.94V83.56Zm-29-8.13q1-5.15,1.66-9.7c.46-3,.84-6.15,1.12-9.36L620,57.12l-.32-11.68,55.79-.75c.07-1,.11-2,.11-3.1V27.88H621.4V16.21H689V34.74q0,7.27-.21,13c-.15,3.82-.36,7.37-.65,10.65s-.66,6.41-1.12,9.37-1,6-1.55,9.26Z"/></g></g></svg>