<svg id="Isolation_Mode" data-name="Isolation Mode" xmlns="http://www.w3.org/2000/svg" viewBox="0 0 263.17 40"><defs><style>.cls-1{fill:#003863;}.cls-2{fill:#e4032e;}.cls-3{fill:#323232;}</style></defs><title>logo</title><path class="cls-1" d="M30.88,19.09a7.22,7.22,0,0,0-10.26,2.15,7.22,7.22,0,0,1-13-2h0a.24.24,0,0,0,0-.08s0-.06,0-.09a9.16,9.16,0,0,1-.37-2.87c0-6.47,6.64-13.67,16.19-13.67A18.23,18.23,0,0,1,40.19,14.14c0-.07,0-.14-.08-.22A20.61,20.61,0,0,0,0,20.61C0,30.79,7.34,39.5,17.52,39.5A16.56,16.56,0,0,0,33.6,28.67,8,8,0,0,0,30.88,19.09Z"/><path class="cls-2" d="M40.32,14.55a18.19,18.19,0,0,0-17-12c-9.55,0-16.19,7.2-16.19,13.67a9.16,9.16,0,0,0,.37,2.87,5.76,5.76,0,0,1-.19-1.47C7.34,10.88,14.08,6.21,21,6.21a17,17,0,0,1,17,17A18.76,18.76,0,0,1,27.63,40h0A20.67,20.67,0,0,0,40.32,14.55Z"/><path class="cls-3" d="M62.61,23.53v-3.3h-9V17.76h20.8v2.47h-9v3.3h7.33v7.9H70V26H55.05V23.53ZM72.73,9.2v6.74H69.92V11.67H55.26V9.2Z"/><path class="cls-3" d="M90.41,21H78.19V14h9.15V11.78H78.19V9.39h12v6.94H81v2.29h9.44Zm-11,1.19h2.76V24H94.44V22.15h2.75v8.79H79.46Zm15,4.16H82.22V28.6H94.44Zm0-17.57h2.8V21.37h-2.8Z"/><path class="cls-3" d="M116.12,26.31v2.5H101v-2.5Zm-1.35-10.45a5.83,5.83,0,0,1-.52,2.41,6.62,6.62,0,0,1-1.41,2,6.53,6.53,0,0,1-10.47-2,5.68,5.68,0,0,1-.52-2.41,5.6,5.6,0,0,1,.52-2.4,6.45,6.45,0,0,1,3.44-3.32,6.45,6.45,0,0,1,2.51-.49,6.43,6.43,0,0,1,4.52,1.82,6.54,6.54,0,0,1,1.41,2A5.75,5.75,0,0,1,114.77,15.86Zm-2.73,0a3.49,3.49,0,0,0-.3-1.43,4.24,4.24,0,0,0-.79-1.2,4.46,4.46,0,0,0-1.2-.79,3.56,3.56,0,0,0-2.86,0,4.46,4.46,0,0,0-1.2.79,4.46,4.46,0,0,0-.79,1.2,3.56,3.56,0,0,0,0,2.86,4.46,4.46,0,0,0,.79,1.2,4.24,4.24,0,0,0,1.2.79,3.56,3.56,0,0,0,2.86,0,4.24,4.24,0,0,0,1.2-.79,4.24,4.24,0,0,0,.79-1.2A3.49,3.49,0,0,0,112,15.86Zm5.77-7.12h2.81V31.38h-2.81Z"/><path class="cls-3" d="M139.1,26.62v2.5H124.41v-2.5H129V19.16h2.78v7.46ZM134.92,24V12.48h-9.67V10H137.7V24Zm8.73,7.41h-2.8V8.74h2.8v9.54h2.92V21h-2.92Z"/><path class="cls-3" d="M161.28,10.17v2.41H148.07V10.17h5.18V8.27h3v1.9ZM149,23.66h17.84v7.51H164v-5H149Zm11-5.8a4.4,4.4,0,0,1-.41,1.87,4.92,4.92,0,0,1-1.12,1.54,6,6,0,0,1-1.67,1,5.19,5.19,0,0,1-2,.39,5.38,5.38,0,0,1-2-.39,5.81,5.81,0,0,1-1.67-1,4.92,4.92,0,0,1-1.12-1.54,4.37,4.37,0,0,1,0-3.74A4.88,4.88,0,0,1,151,14.46a5.6,5.6,0,0,1,1.67-1,5.38,5.38,0,0,1,2-.39,5.19,5.19,0,0,1,2,.39,5.73,5.73,0,0,1,1.67,1A4.88,4.88,0,0,1,159.57,16,4.44,4.44,0,0,1,160,17.86Zm-2.68,0a2.36,2.36,0,0,0-.75-1.75,2.5,2.5,0,0,0-1.79-.72,2.44,2.44,0,0,0-1.78.72,2.41,2.41,0,0,0,0,3.49,2.45,2.45,0,0,0,1.78.73,2.51,2.51,0,0,0,1.79-.73A2.36,2.36,0,0,0,157.3,17.84Zm9.55,4.55H164V8.74h2.81V14h3.25v2.78h-3.25Z"/><path class="cls-3" d="M171.92,12.61V10.14h13.62v2.47h-5.69l6.24,14.82-2.47,1.07-4.76-11.57-4.73,11.75-2.58-1.09,6.27-15Zm17.31-3.87H192V31.38h-2.81Z"/><path class="cls-3" d="M202.7,8.61l7.15,10.89L207.56,21l-4.86-7.51-4.81,7.69-2.34-1.48Zm-5,14.19h18.09v8.37h-2.81V25.3H197.66ZM212.94,8.74h2.81V21.45h-2.81Z"/><path class="cls-3" d="M230.93,20.44l-2.31,1.14-3.54-7.44-3.5,7.62-2.34-1.14,5.84-12Zm-10,10.5V23.37h2.81v5.07h16.14v2.5ZM232.7,8.76h2.65V23.11H232.7v-7h-2.91V13.65h2.91Zm4.32,0h2.7v14.5H237Z"/><path class="cls-3" d="M256.23,28.26H244.17V10.14H256v2.47h-9v5.3h8.19v2.45H247v5.43h9.28Zm4.14-19.52h2.8V31.38h-2.8v-11h-3.75v-2.5h3.75Z"/></svg>