<?xml version="1.0" encoding="utf-8"?>
<!-- Generator: Adobe Illustrator 23.0.1, SVG Export Plug-In . SVG Version: 6.00 Build 0)  -->
<svg version="1.1" id="Layer_1" xmlns="http://www.w3.org/2000/svg" xmlns:xlink="http://www.w3.org/1999/xlink" x="0px" y="0px"
	 viewBox="0 0 248.8 75.07" style="enable-background:new 0 0 248.8 75.07;" xml:space="preserve">
<style type="text/css">
	.st0{fill:#003668;}
	.st1{fill:#E6002D;}
</style>
<g>
	<g>
		<g>
			<g>
				<g>
					<g>
						<g>
							<path class="st0" d="M43.87,40.88c-4.72-3.21-10.77-1.9-13.95,2.93c-2.65,4.03-6.65,4.54-8.19,4.54
								c-5.06,0-8.51-3.56-9.54-7.23h0c-0.01-0.04-0.02-0.07-0.03-0.1c-0.01-0.04-0.02-0.08-0.03-0.13c-0.4-1.54-0.5-2.27-0.5-3.9
								c0-8.79,9.03-18.58,22.01-18.58c13.31,0,20.92,10.13,22.89,15.76c-0.04-0.11-0.07-0.2-0.1-0.3
								c-3.78-11.01-14.22-18.93-26.52-18.93C14.44,14.94,1.9,27.48,1.9,42.95c0,13.83,9.98,25.67,23.81,25.67
								c11.03,0,18.45-6.19,21.85-14.72C49.43,49.24,48.11,43.76,43.87,40.88z"/>
						</g>
						<g>
							<path class="st1" d="M56.7,34.71c-1.64-5.49-9.31-16.3-23.06-16.3c-12.99,0-22.01,9.79-22.01,18.58c0,1.63,0.1,2.36,0.5,3.9
								c-0.17-0.67-0.25-1.34-0.25-2c0-9.16,9.17-15.5,18.59-15.5c12.76,0,23.1,10.34,23.1,23.1c0,10-5.76,18.66-14.11,22.82v0.01
								c10.78-3.9,18.47-14.23,18.47-26.35C57.93,40.08,57.54,37.55,56.7,34.71z"/>
						</g>
					</g>
				</g>
			</g>
		</g>
	</g>
</g>
<g>
	<g>
		<g>
			<path d="M143.75,57.51c-1.95,2.06-4.23,3.73-6.85,5.01c-2.62,1.28-5.69,1.92-9.21,1.92c-3.23,0-6.14-0.6-8.75-1.78
				c-2.6-1.19-4.82-2.81-6.65-4.87c-1.87-2.02-3.31-4.38-4.32-7.1c-1.01-2.72-1.51-5.6-1.51-8.64c0-2.94,0.47-5.75,1.4-8.45
				c0.94-2.7,2.32-5.09,4.16-7.18c1.8-2.06,4-3.7,6.63-4.95c2.62-1.25,5.64-1.87,9.05-1.87c3.41,0,6.41,0.6,9,1.81
				c2.58,1.21,4.94,2.9,7.07,5.06l-4.67,4.73c-1.65-1.76-3.4-3.16-5.25-4.18c-1.85-1.03-3.9-1.54-6.14-1.54
				c-2.05,0-3.96,0.44-5.72,1.32c-1.76,0.88-3.29,2.07-4.57,3.57c-1.29,1.54-2.29,3.31-3.03,5.31c-0.73,2-1.1,4.12-1.1,6.35
				c0,2.24,0.37,4.35,1.1,6.35c0.73,2,1.74,3.75,3.03,5.25c1.28,1.5,2.81,2.7,4.57,3.58c1.76,0.88,3.66,1.32,5.72,1.32
				c2.2,0,4.23-0.51,6.08-1.54c1.85-1.03,3.57-2.42,5.14-4.18L143.75,57.51z"/>
		</g>
	</g>
</g>
<polygon points="247.81,64.45 227.86,42.1 247.81,19.76 238.26,19.76 220.44,39.72 220.44,19.76 212.33,19.76 212.33,64.45 
	220.44,64.45 220.44,44.49 238.26,64.45 "/>
<path d="M184.59,64.39V34.57l-10.32,29.82h-7.69l-10.25-29.82v29.88h-6.82V19.69h8.13L170.4,55.7l12.69-36.01h8.12v44.7H184.59z"/>
<path d="M198.43,64.33V19.81h6.68v44.51H198.43z"/>
<g>
	<path d="M100.67,64.45h-7.63L72.58,31.44v32.95h-6.93V19.79h7.5l20.59,33.07V19.86h6.93V64.45z"/>
</g>
</svg>
