<?xml version="1.0" encoding="utf-8"?>
<!-- Generator: Adobe Illustrator 23.0.1, SVG Export Plug-In . SVG Version: 6.00 Build 0)  -->
<svg version="1.1" id="icon_x5F_pin" xmlns="http://www.w3.org/2000/svg" xmlns:xlink="http://www.w3.org/1999/xlink" x="0px"
	 y="0px" viewBox="0 0 19.8 26.2" style="enable-background:new 0 0 19.8 26.2;" xml:space="preserve">
<style type="text/css">
	.st0{fill:#3F4B80;}
</style>
<g>
	<path class="st0" d="M8.4,3.1c0,0-3.2,6.7-3.2,6.6c-0.2,0.4-0.5,0.5-0.8,0.6c-2,0.2-4.1,1-4.2,1.1l-0.1,0.1c0,0.8,3.2,2.9,6.2,4.6
		c0.1,0.1,0.2,0.1,0.1,0.3c-0.5,1.3-3.2,5.6-3.5,9.1c0,0,0,0.1,0.2,0.2c0.2,0.1,0.3,0,0.4-0.1c0,0,2.8-3.6,4.6-8.4
		c0.1-0.1,0.1-0.2,0.3-0.1c3.3,1.2,6.4,2.7,7.5,2.5c0.1,0,0.2-0.1,0.2-0.3c-0.1-0.8-0.6-3.3-1.7-4.9c-0.1-0.2-0.1-0.4,0-0.7l2.9-6
		c0.1-0.2,0.3-0.5,0.7-0.3l0.4,0.2c0.4,0.2,0.4,0,0.5-0.2l0.7-1.5c0-0.1,0-0.2-0.1-0.3L9,0.1C8.7-0.1,8.5,0,8.4,0.2L7.7,1.6
		C7.4,2,7.8,2.2,7.8,2.2l0.4,0.2C8.4,2.5,8.6,2.8,8.4,3.1z"/>
</g>
</svg>
