<?xml version="1.0" encoding="utf-8"?>
<!-- Generator: Adobe Illustrator 23.0.1, SVG Export Plug-In . SVG Version: 6.00 Build 0)  -->
<svg version="1.1" id="Layer_1" xmlns="http://www.w3.org/2000/svg" xmlns:xlink="http://www.w3.org/1999/xlink" x="0px" y="0px"
	 viewBox="0 0 8 4.5" style="enable-background:new 0 0 8 4.5;" xml:space="preserve">
<style type="text/css">
	.st0{fill:#DA4E02;}
</style>
<path class="st0" d="M0.1,0.1C0.1,0.2,0,0.3,0,0.5c0,0.1,0.1,0.2,0.1,0.3l3.5,3.5c0.2,0.2,0.5,0.2,0.7,0c0,0,0,0,0,0l3.5-3.5
	c0.2-0.2,0.2-0.5,0-0.6c0,0,0,0,0,0C7.7,0,7.4-0.1,7.2,0.1c0,0,0,0,0,0L4,3.3L0.8,0.1C0.6,0,0.3,0,0.1,0.1z"/>
</svg>
