<?xml version="1.0" encoding="utf-8"?>
<!-- Generator: Adobe Illustrator 23.0.1, SVG Export Plug-In . SVG Version: 6.00 Build 0)  -->
<svg version="1.1" id="Layer_1" xmlns="http://www.w3.org/2000/svg" xmlns:xlink="http://www.w3.org/1999/xlink" x="0px" y="0px"
	 viewBox="0 0 12 12" style="enable-background:new 0 0 12 12;" xml:space="preserve">
<style type="text/css">
	.st0{fill:#DA4E02;}
</style>
<g>
	<path class="st0" d="M5.1,10.2C2.3,10.2,0,7.9,0,5.1C0,2.3,2.3,0,5.1,0c2.8,0,5.1,2.3,5.1,5.1C10.2,7.9,7.9,10.2,5.1,10.2z M5.1,1
		C2.8,1,1,2.8,1,5.1s1.8,4.1,4.1,4.1s4.1-1.8,4.1-4.1c0,0,0,0,0,0C9.2,2.8,7.3,1,5.1,1z"/>
	<path class="st0" d="M11.5,12c-0.1,0-0.3-0.1-0.4-0.1L8,8.7C7.8,8.5,7.9,8.2,8.1,8c0.2-0.1,0.4-0.1,0.6,0l3.2,3.2
		c0.2,0.2,0.2,0.5,0,0.7C11.8,12,11.6,12,11.5,12z"/>
</g>
</svg>
